<svg version="1.0" xmlns="http://www.w3.org/2000/svg"
     width="current" height="current" viewBox="0 0 920.000000 920.000000"
     preserveAspectRatio="xMidYMid meet">

    <g transform="translate(0.000000,920.000000) scale(0.100000,-0.100000)"
       fill="current" stroke="none">
        <path d="M2460 8039 c-175 -25 -342 -111 -475 -244 -106 -106 -169 -206 -217
-345 l-33 -95 -3 -3238 c-2 -2601 0 -3237 10 -3231 7 4 213 155 458 334 245
180 885 649 1423 1044 l977 716 378 -276 c207 -153 418 -307 467 -344 82 -60
319 -234 1593 -1168 l427 -312 3 3205 c2 3535 7 3261 -61 3429 -112 274 -379
483 -672 526 -85 12 -4192 12 -4275 -1z"/>
    </g>
</svg>
