<svg version="1.0" xmlns="http://www.w3.org/2000/svg"
     width="current" height="current" viewBox="0 0 256.000000 287.000000"
     preserveAspectRatio="xMidYMid meet">

    <g transform="translate(0.000000,287.000000) scale(0.100000,-0.100000)"
       fill="current" stroke="none">
        <path d="M196 2853 c-8 -9 -7 -36 2 -51 14 -21 40 -4 34 23 -4 23 -25 39 -36
28z"/>
        <path d="M263 2800 c-42 -17 -23 -45 22 -34 16 4 25 12 23 22 -4 20 -17 23
-45 12z"/>
        <path d="M158 2773 c-19 -5 -24 -28 -9 -37 15 -10 61 12 61 29 0 15 -17 17
-52 8z"/>
        <path d="M227 2754 c-12 -12 -8 -51 6 -63 16 -13 27 -5 27 19 0 21 -24 53 -33
44z"/>
        <path d="M576 2745 c-153 -54 -213 -250 -118 -388 31 -46 110 -94 169 -103 90
-13 201 38 246 113 19 33 22 35 31 17 6 -10 30 -38 52 -60 151 -150 402 -50
421 168 5 51 2 66 -26 122 -35 71 -77 109 -147 133 -57 19 -136 13 -192 -16
-38 -19 -112 -94 -112 -114 0 -5 -15 11 -33 35 -73 95 -184 131 -291 93z m170
-44 c181 -82 162 -347 -30 -401 -170 -47 -323 136 -246 295 52 107 172 153
276 106z m475 -8 c71 -37 108 -90 116 -166 11 -112 -71 -216 -184 -233 -66
-10 -118 10 -173 65 -38 38 -50 59 -59 100 -21 98 23 191 112 236 67 33 119
32 188 -2z"/>
        <path d="M2082 2407 c-32 -34 -101 -108 -152 -164 -51 -57 -97 -103 -101 -103
-5 0 -9 41 -9 91 0 137 13 129 -210 129 l-190 0 -14 -35 c-23 -53 -107 -131
-163 -149 -119 -39 -196 -29 -293 36 l-59 39 -45 -35 c-61 -46 -107 -61 -191
-60 -115 1 -200 51 -260 153 -16 28 -33 51 -37 51 -4 0 -14 -7 -22 -16 -14
-14 -16 -74 -16 -509 0 -435 2 -495 16 -509 13 -14 54 -16 296 -16 l280 0
-451 -457 c-248 -251 -451 -462 -451 -468 0 -14 72 -85 87 -85 6 0 195 187
421 415 226 228 413 415 416 415 3 0 6 -245 6 -545 l0 -545 70 0 70 0 0 547 0
548 418 -418 c229 -229 422 -417 428 -417 15 0 87 76 83 88 -2 5 -203 211
-446 458 -244 246 -443 452 -443 456 0 4 149 8 331 8 208 0 337 4 350 10 17
10 19 22 19 110 0 55 4 100 9 100 4 0 69 -66 142 -147 169 -186 168 -185 179
-178 13 8 14 1252 1 1259 -5 3 -36 -22 -69 -57z m36 -524 l-3 -498 -5 490 c-5
470 -4 505 6 505 2 0 3 -224 2 -497z m-28 454 c0 -2 -17 -19 -37 -38 l-38 -34
34 38 c33 34 41 42 41 34z m-644 -45 c-18 -16 -18 -16 -6 6 6 13 14 21 18 18
3 -4 -2 -14 -12 -24z m217 21 c-34 -2 -93 -2 -130 0 -37 2 -9 3 62 3 72 0 102
-1 68 -3z m112 -4 c11 -16 1 -19 -13 -3 -7 8 -8 14 -3 14 5 0 13 -5 16 -11z
m2 -162 c-2 -23 -3 -1 -3 48 0 50 1 68 3 42 2 -26 2 -67 0 -90z m-1377 78 l35
-40 -32 29 -33 30 0 -442 0 -441 38 -4 37 -4 -43 -1 -42 -2 0 461 c1 254 2
460 3 458 1 -2 18 -22 37 -44z m1610 21 c0 -2 -8 -10 -17 -17 -16 -13 -17 -12
-4 4 13 16 21 21 21 13z m-610 -19 c0 -2 -10 -12 -22 -23 l-23 -19 19 23 c18
21 26 27 26 19z m553 -42 c-10 -13 -22 -25 -27 -25 -5 0 1 11 14 25 30 32 36
32 13 0z m-1078 -15 c-3 -5 -12 -10 -18 -10 -7 0 -6 4 3 10 19 12 23 12 15 0z
m1045 -24 c0 -3 -4 -8 -10 -11 -5 -3 -10 -1 -10 4 0 6 5 11 10 11 6 0 10 -2
10 -4z m-650 -16 c-8 -5 -22 -9 -30 -9 -10 0 -8 3 5 9 27 12 43 12 25 0z m-53
-16 c-3 -3 -12 -4 -19 -1 -8 3 -5 6 6 6 11 1 17 -2 13 -5z m-529 -11 c-10 -2
-28 -2 -40 0 -13 2 -5 4 17 4 22 1 32 -1 23 -4z m455 0 c-13 -2 -33 -2 -45 0
-13 2 -3 4 22 4 25 0 35 -2 23 -4z m634 -615 c-2 -13 -4 -3 -4 22 0 25 2 35 4
23 2 -13 2 -33 0 -45z m154 15 c13 -16 12 -17 -3 -4 -10 7 -18 15 -18 17 0 8
8 3 21 -13z m99 -108 c13 -14 21 -25 18 -25 -2 0 -15 11 -28 25 -13 14 -21 25
-18 25 2 0 15 -11 28 -25z m-253 -30 c-6 -13 -45 -15 -314 -13 l-308 3 308 2
c278 3 307 5 307 20 0 9 3 14 6 10 4 -3 4 -13 1 -22z m-1069 -12 c-21 -2 -55
-2 -75 0 -21 2 -4 4 37 4 41 0 58 -2 38 -4z m130 0 c-16 -2 -40 -2 -55 0 -16
2 -3 4 27 4 30 0 43 -2 28 -4z m269 1 c-3 -3 -12 -4 -19 -1 -8 3 -5 6 6 6 11
1 17 -2 13 -5z m974 -11 c13 -16 12 -17 -3 -4 -10 7 -18 15 -18 17 0 8 8 3 21
-13z m39 -24 c0 -16 -4 -28 -9 -25 -8 5 -3 56 5 56 2 0 4 -14 4 -31z m-1169
-42 c-10 -9 -11 -8 -5 6 3 10 9 15 12 12 3 -3 0 -11 -7 -18z m-21 -21 c0 -2
-8 -10 -17 -17 -16 -13 -17 -12 -4 4 13 16 21 21 21 13z m186 -28 l29 -33 -32
29 c-31 28 -38 36 -30 36 2 0 16 -15 33 -32z m-266 -52 c0 -2 -8 -10 -17 -17
-16 -13 -17 -12 -4 4 13 16 21 21 21 13z m40 -19 c0 -2 -12 -14 -27 -28 l-28
-24 24 28 c23 25 31 32 31 24z m346 -49 l29 -33 -32 29 c-31 28 -38 36 -30 36
2 0 16 -15 33 -32z m-249 -20 c-3 -8 -6 -5 -6 6 -1 11 2 17 5 13 3 -3 4 -12 1
-19z m-217 8 c0 -2 -8 -10 -17 -17 -16 -13 -17 -12 -4 4 13 16 21 21 21 13z
m40 -19 c0 -2 -12 -14 -27 -28 l-28 -24 24 28 c23 25 31 32 31 24z m455 -55
c-3 -3 -11 0 -18 7 -9 10 -8 11 6 5 10 -3 15 -9 12 -12z m255 -199 c0 -8 -13
5 -110 105 l-105 107 108 -105 c59 -57 107 -106 107 -107z m-800 164 c0 -2
-10 -12 -22 -23 l-23 -19 19 23 c18 21 26 27 26 19z m604 -23 c3 -8 2 -12 -4
-9 -6 3 -10 10 -10 16 0 14 7 11 14 -7z m-726 -44 c-7 -10 -14 -17 -17 -15 -4
4 18 35 25 35 2 0 -1 -9 -8 -20z m783 -17 c13 -16 12 -17 -3 -4 -17 13 -22 21
-14 21 2 0 10 -8 17 -17z m-863 -67 c-7 -8 -15 -12 -17 -11 -5 6 10 25 20 25
5 0 4 -6 -3 -14z m962 -31 c19 -19 32 -35 29 -35 -3 0 -20 16 -39 35 -19 19
-32 35 -29 35 3 0 20 -16 39 -35z m-990 1 c0 -2 -8 -10 -17 -17 -16 -13 -17
-12 -4 4 13 16 21 21 21 13z m36 -24 c-17 -16 -18 -16 -5 5 7 12 15 20 18 17
3 -2 -3 -12 -13 -22z m1044 -7 c19 -19 32 -35 29 -35 -3 0 -20 16 -39 35 -19
19 -32 35 -29 35 3 0 20 -16 39 -35z m5 -65 c10 -11 16 -20 13 -20 -3 0 -13 9
-23 20 -10 11 -16 20 -13 20 3 0 13 -9 23 -20z m75 -15 c19 -19 32 -35 29 -35
-3 0 -20 16 -39 35 -19 19 -32 35 -29 35 3 0 20 -16 39 -35z m-1300 -90 c-41
-41 -77 -75 -79 -75 -3 0 28 34 69 75 41 41 77 75 79 75 3 0 -28 -34 -69 -75z
m1280 50 c13 -14 21 -25 18 -25 -2 0 -15 11 -28 25 -13 14 -21 25 -18 25 2 0
15 -11 28 -25z m-1280 11 c0 -2 -8 -10 -17 -17 -16 -13 -17 -12 -4 4 13 16 21
21 21 13z m1390 -61 c13 -14 21 -25 18 -25 -2 0 -15 11 -28 25 -13 14 -21 25
-18 25 2 0 15 -11 28 -25z m-1450 2 c0 -2 -12 -14 -27 -28 l-28 -24 24 28 c23
25 31 32 31 24z m1470 -84 l75 -78 -77 75 c-43 41 -78 76 -78 77 0 8 11 -3 80
-74z m-1550 4 c0 -2 -12 -14 -27 -28 l-28 -24 24 28 c23 25 31 32 31 24z m-20
-82 c-41 -41 -77 -75 -79 -75 -3 0 28 34 69 75 41 41 77 75 79 75 3 0 -28 -34
-69 -75z m1685 25 c10 -11 16 -20 13 -20 -3 0 -13 9 -23 20 -10 11 -16 20 -13
20 3 0 13 -9 23 -20z m-1745 -24 c0 -2 -8 -10 -17 -17 -16 -13 -17 -12 -4 4
13 16 21 21 21 13z m1740 -31 c13 -14 21 -25 18 -25 -2 0 -15 11 -28 25 -13
14 -21 25 -18 25 2 0 15 -11 28 -25z m-1786 -19 c-3 -8 -1 -17 5 -21 6 -3 11
-11 11 -18 0 -6 -7 -1 -16 11 -8 12 -12 27 -9 32 9 15 15 12 9 -4z m910 -301
c3 -8 1 -15 -4 -15 -6 0 -10 7 -10 15 0 8 2 15 4 15 2 0 6 -7 10 -15z"/>
        <path d="M2446 2251 c-4 -5 6 -19 21 -31 16 -12 23 -23 17 -26 -33 -14 -49
-33 -37 -44 8 -9 22 -6 57 15 25 15 46 32 46 39 0 12 -69 56 -88 56 -6 0 -13
-4 -16 -9z"/>
        <path d="M190 1240 c-11 -7 -12 -12 -3 -21 13 -13 33 -4 33 17 0 16 -9 18 -30
4z"/>
        <path d="M243 1223 c-7 -2 -13 -10 -13 -16 0 -6 -7 -18 -14 -26 -18 -20 -5
-47 18 -38 14 5 15 11 6 27 -9 17 -8 20 10 20 13 0 20 7 20 20 0 20 -5 23 -27
13z"/>
        <path d="M160 1180 c0 -22 7 -25 29 -11 16 10 6 31 -15 31 -8 0 -14 -9 -14
-20z"/>
        <path d="M1976 989 c-66 -52 5 -152 73 -102 36 27 39 66 7 98 -31 30 -45 31
-80 4z m64 -43 c0 -17 -24 -38 -33 -29 -15 15 -6 43 13 43 11 0 20 -6 20 -14z"/>
        <path d="M682 544 c-30 -21 -29 -59 3 -80 23 -15 27 -15 50 0 32 21 33 59 3
80 -12 9 -25 16 -28 16 -3 0 -16 -7 -28 -16z m38 -39 c0 -8 -4 -15 -10 -15 -5
0 -10 7 -10 15 0 8 5 15 10 15 6 0 10 -7 10 -15z"/>
        <path d="M1972 78 c3 -8 29 -14 71 -16 55 -2 67 0 67 13 0 12 -14 15 -71 15
-52 0 -70 -3 -67 -12z"/>
        <path d="M1795 30 c-15 -24 9 -30 93 -25 48 2 102 5 120 5 22 0 32 5 32 15 0
12 -20 15 -119 15 -69 0 -122 -4 -126 -10z"/>
    </g>
</svg>
