<svg version="1.0" xmlns="http://www.w3.org/2000/svg"
     width="current" height="current" viewBox="0 0 270.000000 270.000000"
     preserveAspectRatio="xMidYMid meet">

    <g transform="translate(0.000000,270.000000) scale(0.100000,-0.100000)"
       fill="current" stroke="none">
        <path d="M875 2690 c-225 -28 -424 -126 -585 -289 -189 -190 -282 -417 -283
-686 -1 -177 27 -294 106 -453 114 -230 341 -418 602 -498 84 -26 103 -28 270
-28 159 -1 189 2 260 22 289 84 512 272 636 536 71 153 84 217 83 421 0 166
-2 187 -27 268 -83 270 -264 487 -507 609 -165 82 -378 120 -555 98z m215
-260 c393 -62 667 -415 621 -800 -22 -174 -86 -306 -211 -430 -203 -204 -486
-269 -753 -174 -150 54 -305 181 -385 316 -161 272 -122 627 95 858 119 126
242 196 399 224 97 18 150 19 234 6z"/>
        <path d="M831 2300 c-119 -32 -269 -128 -292 -186 -10 -28 4 -71 29 -90 31
-24 68 -16 118 26 186 155 426 152 615 -6 47 -39 75 -43 113 -13 32 25 35 75
6 111 -33 43 -152 117 -230 145 -103 36 -253 42 -359 13z"/>
        <path d="M1749 950 l-116 -118 401 -400 c221 -220 412 -405 425 -412 35 -18
101 -15 145 5 77 37 113 145 73 220 -8 17 -195 208 -414 426 l-398 396 -116
-117z"/>
    </g>
</svg>
