<svg version="1.0" xmlns="http://www.w3.org/2000/svg"
     width="current" height="current" viewBox="0 0 225.000000 225.000000"
     preserveAspectRatio="xMidYMid meet">

    <g transform="translate(0.000000,225.000000) scale(0.100000,-0.100000)"
       fill="current" stroke="none">
        <path d="M820 1939 c-254 -66 -453 -263 -514 -512 -20 -78 -23 -237 -7 -309 6
-26 22 -77 35 -112 118 -313 485 -508 804 -428 98 25 186 63 248 108 l46 32
217 -219 c231 -235 240 -241 286 -194 51 50 44 61 -190 295 l-215 215 36 54
c82 122 118 241 118 396 0 127 -18 204 -70 311 -142 289 -482 445 -794 363z
m330 -115 c187 -53 354 -226 405 -420 20 -75 19 -210 -1 -288 -49 -189 -198
-348 -385 -410 -219 -73 -425 -21 -594 149 -129 129 -182 260 -173 430 12 212
127 394 308 489 76 39 123 55 194 67 66 10 176 2 246 -17z"/>
    </g>
</svg>
